# Blender v2.91.0 OBJ File: ''
# www.blender.org
mtllib Rock1.mtl
o bstone_s01
v 1.988770 11.213135 -0.259276
v 0.454102 10.194580 -2.290037
v -0.232422 11.755615 -0.259275
v -2.029297 11.260498 -2.011229
v -1.982422 10.806885 0.995607
v 3.047363 7.538330 -2.788573
v 1.988770 11.213135 -0.259276
v 3.546387 6.916260 -0.259276
v 2.674805 7.538329 1.770997
v 1.988770 11.213135 -0.259276
v 3.047363 7.538330 -2.788573
v 0.454102 10.194580 -2.290037
v 1.185059 6.916260 -3.768554
v -2.322266 7.538330 -4.019530
v 0.454102 10.194580 -2.290037
v -2.322266 7.538330 -4.019530
v -2.029297 11.260498 -2.011229
v -3.845215 6.916260 -2.456542
v -3.845215 6.916260 -2.456542
v -3.826172 7.538330 -0.259276
v -2.029297 11.260498 -2.011229
v -1.982422 10.806885 0.995607
v -1.982422 10.806885 0.995607
v -3.826172 7.538330 -0.259276
v -3.289551 6.916259 1.875489
v -5.840332 3.715088 0.629395
v -4.726074 4.369873 2.902833
v -6.663574 -0.004151 2.757812
v -1.982422 10.806885 0.995607
v 0.454102 10.194580 1.770998
v -0.232422 11.755615 -0.259275
v 1.988770 11.213135 -0.259276
v -3.289551 6.916259 1.875489
v -1.342773 7.538329 3.026368
v -1.982422 10.806885 0.995607
v 0.454102 10.194580 1.770998
v 0.454102 10.194580 1.770998
v -1.342773 7.538329 3.026368
v 0.935059 6.916259 3.195314
v 0.036133 3.715087 3.958497
v 1.988770 11.213135 -0.259276
v 0.454102 10.194580 1.770998
v 2.674805 7.538329 1.770997
v 0.935059 6.916259 3.195314
v 3.941406 4.544677 3.007813
v 0.036133 3.715087 3.958497
v 2.318848 -0.004151 3.066895
v -2.246582 -0.032472 5.168945
v 7.172851 3.715088 -3.399902
v 6.725586 3.057861 0.811524
v 8.419434 -0.004150 -1.568848
v 7.285156 0.007568 2.898926
v 7.163086 0.007569 -4.867676
v 2.622559 -0.004149 -7.111816
v 4.798340 4.544679 -6.040526
v 0.036133 3.715089 -6.464355
v 2.622559 -0.004149 -7.111816
v -2.315430 -0.032470 -5.355957
v 0.036133 3.715089 -6.464355
v -3.154297 4.369874 -3.675292
v -2.322266 7.538330 -4.019530
v -2.315430 -0.032470 -5.355957
v -6.443359 -0.004150 -4.640137
v -3.154297 4.369874 -3.675292
v -6.588867 3.715088 -3.148925
v -6.443359 -0.004150 -4.640137
v -7.571289 0.007569 -1.568848
v -6.588867 3.715088 -3.148925
v -5.840332 3.715088 0.629395
v -3.826172 7.538330 -0.259276
v -6.663574 -0.004151 2.757812
v -2.246582 -0.032472 5.168945
v -4.726074 4.369873 2.902833
v 0.036133 3.715087 3.958497
v -1.342773 7.538329 3.026368
v 4.798340 4.544679 -6.040526
v 7.172851 3.715088 -3.399902
v 7.163086 0.007569 -4.867676
v 8.419434 -0.004150 -1.568848
v 1.185059 6.916260 -3.768554
v 3.047363 7.538330 -2.788573
v 4.798340 4.544679 -6.040526
v 7.172851 3.715088 -3.399902
v 3.047363 7.538330 -2.788573
v 3.546387 6.916260 -0.259276
v 7.172851 3.715088 -3.399902
v 6.725586 3.057861 0.811524
v -2.322266 7.538330 -4.019530
v -3.154297 4.369874 -3.675292
v -3.845215 6.916260 -2.456542
v -6.588867 3.715088 -3.148925
v -3.826172 7.538330 -0.259276
v -2.322266 7.538330 -4.019530
v 1.185059 6.916260 -3.768554
v 0.036133 3.715089 -6.464355
v 4.798340 4.544679 -6.040526
v 7.285156 0.007568 2.898926
v 6.725586 3.057861 0.811524
v 3.941406 4.544677 3.007813
v 2.674805 7.538329 1.770997
v -5.840332 3.715088 0.629395
v -7.571289 0.007569 -1.568848
v -6.663574 -0.004151 2.757812
v 3.941406 4.544677 3.007813
v 2.318848 -0.004151 3.066895
v 7.285156 0.007568 2.898926
v -4.726074 4.369873 2.902833
v -1.342773 7.538329 3.026368
v -3.289551 6.916259 1.875489
v 6.725586 3.057861 0.811524
v 3.546387 6.916260 -0.259276
v 2.674805 7.538329 1.770997
vt 1.206543 1.714356
vt 1.494629 1.333984
vt 1.623047 1.714356
vt 1.959961 1.386230
vt 1.951172 1.949707
vt 1.632324 1.240723
vt 2.320801 1.714356
vt 1.515625 1.714356
vt 1.632324 2.095215
vt 1.206543 2.320801
vt 1.008301 1.632324
vt 1.494629 2.129883
vt 1.357422 1.515625
vt 1.889160 1.632324
vt 1.494629 2.129883
vt 1.889160 1.632324
vt 1.959961 2.330078
vt 2.300293 1.515625
vt 1.484375 1.302734
vt 1.367676 1.714356
vt 0.669922 1.386230
vt 0.755371 1.949707
vt 0.755371 1.949707
vt 1.367676 1.714356
vt 1.484375 2.114746
vt 1.941894 1.880859
vt 1.819336 2.307129
vt 2.417480 2.279785
vt 1.951172 1.949707
vt 1.494629 2.095215
vt 1.623047 1.714356
vt 1.206543 1.714356
vt 0.804199 1.515625
vt 1.168945 1.632324
vt 1.048828 2.244629
vt 1.505371 2.129883
vt 1.505371 2.129883
vt 1.168945 1.632324
vt 1.595703 1.515625
vt 1.427246 1.058105
vt 1.793457 2.320801
vt 1.505371 2.129883
vt 1.921875 1.632324
vt 1.595703 1.515625
vt 2.159180 1.213379
vt 1.427246 1.058105
vt 1.912598 0.582520
vt 0.999512 0.577148
vt 1.058105 1.125977
vt 0.935059 1.915039
vt 0.582520 1.469238
vt 0.584961 2.306641
vt 0.236328 0.584961
vt 1.087402 0.582520
vt 0.680176 1.213379
vt 1.572754 1.058105
vt 1.087402 0.582520
vt 2.083008 0.577148
vt 1.572754 1.058105
vt 2.251953 1.180664
vt 1.889160 1.632324
vt 2.083008 0.577148
vt 2.787109 0.582520
vt 2.251953 1.180664
vt 2.814453 1.058105
vt 2.417480 0.893555
vt 2.415039 1.469238
vt 1.941894 1.172852
vt 1.941894 1.880859
vt 1.367676 1.714356
vt 0.171387 0.582520
vt 0.999512 0.577148
vt 0.534668 1.180664
vt 1.427246 1.058105
vt 1.168945 1.632324
vt 1.213379 0.630859
vt 1.058105 1.125977
vt 0.584961 0.688477
vt 0.582520 1.469238
vt 1.357422 1.056641
vt 1.008301 1.240723
vt 0.680176 0.630859
vt 0.235352 1.125977
vt 1.008301 1.240723
vt 0.915039 1.714356
vt 0.235352 1.125977
vt 0.318848 1.915039
vt 1.889160 1.170410
vt 2.251953 0.855469
vt 2.300293 1.302734
vt 2.814453 1.172852
vt 2.296387 1.714356
vt 1.889160 1.170410
vt 1.357422 1.056641
vt 1.572754 0.551758
vt 0.680176 0.630859
vt 0.584961 2.306641
vt 0.935059 1.915039
vt 1.213379 2.327148
vt 1.632324 2.095215
vt 1.941894 1.880859
vt 2.415039 1.469238
vt 2.417480 2.279785
vt 2.159180 1.213379
vt 1.912598 0.582520
vt 2.786133 0.584961
vt 2.465332 2.307129
vt 1.831055 2.330078
vt 2.195801 2.114746
vt 0.318848 1.915039
vt 0.915039 1.714356
vt 1.078125 2.095215
vn 0.1974 0.8083 -0.5546
vn 0.2866 0.8039 -0.5211
vn -0.3903 0.9095 0.1433
vn 0.9353 0.3391 -0.1011
vn 0.9007 0.3265 0.2866
vn 0.4760 0.5875 -0.6544
vn 0.2952 0.4467 -0.8446
vn 0.1405 0.4329 -0.8904
vn 0.1014 0.4662 -0.8788
vn -0.7352 0.3658 -0.5707
vn -0.9139 0.3926 -0.1032
vn -0.8814 0.4650 0.0839
vn -0.8715 0.3665 0.3259
vn -0.7949 0.4990 0.3452
vn -0.8027 0.5479 0.2356
vn -0.8705 0.3750 0.3186
vn 0.0059 0.7937 0.6083
vn 0.1974 0.8083 0.5547
vn -0.5573 0.3568 0.7498
vn -0.1454 0.5014 0.8529
vn 0.0424 0.4033 0.9141
vn -0.0082 0.2341 0.9722
vn 0.5698 0.4763 0.6697
vn 0.4870 0.4072 0.7727
vn 0.4375 0.4952 0.7506
vn 0.1978 0.1744 0.9646
vn 0.2513 -0.0771 0.9648
vn 0.4177 0.0388 0.9078
vn 0.9107 0.3822 0.1564
vn 0.9163 0.3267 0.2318
vn 0.4431 -0.0008 -0.8965
vn 0.0511 0.2057 -0.9773
vn -0.3339 -0.0685 -0.9401
vn -0.6286 0.1700 -0.7589
vn -0.6455 0.0871 -0.7588
vn -0.1594 0.3254 -0.9320
vn -0.2076 0.3570 -0.9107
vn -0.9338 0.1011 -0.3433
vn -0.9279 0.3242 0.1838
vn -0.8552 0.4899 0.1694
vn -0.4704 0.1797 0.8639
vn -0.1490 0.3849 0.9108
vn -0.1915 0.1668 0.9672
vn 0.7582 0.2383 -0.6069
vn 0.9259 0.1370 -0.3521
vn 0.0886 0.7561 -0.6484
vn 0.6154 0.7166 -0.3283
vn 0.6826 0.7294 0.0447
vn 0.7340 0.6548 0.1801
vn -0.7345 0.1203 -0.6678
vn -0.2099 0.3752 -0.9029
vn -0.7270 0.6623 -0.1812
vn 0.1626 0.6008 -0.7827
vn -0.0465 0.6532 -0.7558
vn 0.6857 0.4925 0.5359
vn 0.6843 0.5063 0.5247
vn -0.9279 0.3173 0.1955
vn 0.0338 0.0009 0.9994
vn -0.5469 0.5597 0.6226
vn 0.7491 0.6511 0.1221
usemtl 2___Default
s off
f 1/1/1 2/2/1 3/3/1
f 2/2/2 4/4/2 3/3/2
f 3/3/3 4/4/3 5/5/3
f 6/6/4 7/7/4 8/8/4
f 7/7/5 9/9/5 8/8/5
f 10/10/6 11/11/6 12/12/6
f 11/11/7 13/13/7 12/12/7
f 12/12/8 13/13/8 14/14/8
f 15/15/9 16/16/9 17/17/9
f 16/16/10 18/18/10 17/17/10
f 19/19/11 20/20/11 21/21/11
f 20/20/12 22/22/12 21/21/12
f 23/23/13 24/24/13 25/25/13
f 24/24/14 26/26/14 25/25/14
f 25/25/15 26/26/15 27/27/15
f 26/26/16 28/28/16 27/27/16
f 29/29/17 30/30/17 31/31/17
f 30/30/18 32/32/18 31/31/18
f 33/33/19 34/34/19 35/35/19
f 34/34/20 36/36/20 35/35/20
f 37/37/21 38/38/21 39/39/21
f 38/38/22 40/40/22 39/39/22
f 41/41/23 42/42/23 43/43/23
f 42/42/24 44/44/24 43/43/24
f 43/43/25 44/44/25 45/45/25
f 44/44/26 46/46/26 45/45/26
f 45/45/27 46/46/27 47/47/27
f 46/46/28 48/48/28 47/47/28
f 49/49/29 50/50/29 51/51/29
f 50/50/30 52/52/30 51/51/30
f 53/53/31 54/54/31 55/55/31
f 54/54/32 56/56/32 55/55/32
f 57/57/33 58/58/33 59/59/33
f 58/58/34 60/60/34 59/59/34
f 59/59/35 60/60/35 61/61/35
f 62/62/36 63/63/36 64/64/36
f 63/63/37 65/65/37 64/64/37
f 66/66/38 67/67/38 68/68/38
f 67/67/39 69/69/39 68/68/39
f 68/68/40 69/69/40 70/70/40
f 71/71/41 72/72/41 73/73/41
f 72/72/42 74/74/42 73/73/42
f 73/73/43 74/74/43 75/75/43
f 76/76/44 77/77/44 78/78/44
f 77/77/45 79/79/45 78/78/45
f 80/80/46 81/81/46 82/82/46
f 81/81/47 83/83/47 82/82/47
f 84/84/48 85/85/48 86/86/48
f 85/85/49 87/87/49 86/86/49
f 88/88/50 89/89/50 90/90/50
f 89/89/51 91/91/51 90/90/51
f 90/90/52 91/91/52 92/92/52
f 93/93/53 94/94/53 95/95/53
f 94/94/54 96/96/54 95/95/54
f 97/97/55 98/98/55 99/99/55
f 98/98/56 100/100/56 99/99/56
f 101/101/57 102/102/57 103/103/57
f 104/104/58 105/105/58 106/106/58
f 107/107/59 108/108/59 109/109/59
f 110/110/60 111/111/60 112/112/60
